<?xml version="1.0" encoding="UTF-8" standalone="no"?>
<svg
   xmlns:dc="http://purl.org/dc/elements/1.1/"
   xmlns:cc="http://creativecommons.org/ns#"
   xmlns:rdf="http://www.w3.org/1999/02/22-rdf-syntax-ns#"
   xmlns:svg="http://www.w3.org/2000/svg"
   xmlns="http://www.w3.org/2000/svg"
   width="91.119591mm"
   height="34.527069mm"
   viewBox="0 0 91.119591 34.527069"
   version="1.1"
   id="svg8">
  <defs
     id="defs2" />
  <metadata
     id="metadata5">
    <rdf:RDF>
      <cc:Work
         rdf:about="">
        <dc:format>image/svg+xml</dc:format>
        <dc:type
           rdf:resource="http://purl.org/dc/dcmitype/StillImage" />
        <dc:title></dc:title>
      </cc:Work>
    </rdf:RDF>
  </metadata>
  <g
     id="g4500">
    <g
       transform="translate(-87.7364,-131.23647)"
       id="layer1">
      <g
         id="g4588">
        <g
           id="g5198">
          <g
             id="g5188"
             transform="matrix(0.256,0,0,0.256,78.119999,110.484)">
            <path
               id="path4524"
               style="opacity:1;fill:#1b71bc;fill-opacity:1;fill-rule:nonzero;stroke:none;stroke-width:1;stroke-linecap:round;stroke-linejoin:round;stroke-miterlimit:10;stroke-dasharray:none;stroke-dashoffset:0;stroke-opacity:1;paint-order:stroke fill markers"
               d="m 153.83357,148.50002 a 48.833622,48.833622 0 0 1 -48.83362,48.83362 48.833622,48.833622 0 0 1 -48.83362,-48.83362 48.833622,48.833622 0 0 1 48.83362,-48.833624 48.833622,48.833622 0 0 1 48.83362,48.833624 z M 104.99974,81.064321 a 67.435912,67.435904 0 0 0 -6.87193,0.423746 l -0.93741,7.316864 a 60.276364,60.276364 0 0 0 -6.262148,1.15497 L 87.41167,83.420247 a 67.435912,67.435904 0 0 0 -9.653675,3.482475 l 1.364776,7.223332 a 60.276364,60.276364 0 0 0 -5.61051,3.033924 l -5.349545,-5.118034 a 67.435912,67.435904 0 0 0 -8.106999,6.291606 l 3.518648,6.42648 a 60.276364,60.276364 0 0 0 -4.415234,4.62866 l -6.6089,-3.18533 a 67.435912,67.435904 0 0 0 -5.808946,8.46305 l 5.322671,5.01571 a 60.276364,60.276364 0 0 0 -2.743502,5.78673 l -7.252787,-0.98444 a 67.435912,67.435904 0 0 0 -2.957957,9.82782 l 6.673493,3.15433 a 60.276364,60.276364 0 0 0 -0.824238,6.32985 l -7.224882,1.30896 a 67.435912,67.435904 0 0 0 -0.170016,3.39463 67.435912,67.435904 0 0 0 0.424262,6.87245 l 7.316867,0.93741 a 60.276364,60.276364 0 0 0 1.154451,6.26215 l -6.539651,3.51658 a 67.435912,67.435904 0 0 0 3.482991,9.65315 l 7.222816,-1.36477 a 60.276364,60.276364 0 0 0 3.033921,5.61051 l -5.118034,5.35006 a 67.435912,67.435904 0 0 0 6.291607,8.107 l 6.426999,-3.51865 a 60.276364,60.276364 0 0 0 4.628139,4.41472 l -3.184819,6.6089 a 67.435912,67.435904 0 0 0 8.462534,5.80946 l 5.015714,-5.32267 a 60.276364,60.276364 0 0 0 5.786726,2.74299 l -0.984435,7.25278 a 67.435912,67.435904 0 0 0 9.827823,2.95745 l 3.154331,-6.67246 a 60.276364,60.276364 0 0 0 6.330361,0.82372 l 1.30896,7.2254 a 67.435912,67.435904 0 0 0 3.39411,0.1695 67.435912,67.435904 0 0 0 6.87245,-0.42375 l 0.93741,-7.31687 a 60.276364,60.276364 0 0 0 6.26215,-1.15497 l 3.51658,6.53966 a 67.435912,67.435904 0 0 0 9.65368,-3.48248 l -1.36478,-7.22333 a 60.276364,60.276364 0 0 0 5.61051,-3.03392 l 5.34954,5.11803 a 67.435912,67.435904 0 0 0 8.107,-6.29161 l -3.51864,-6.42648 a 60.276364,60.276364 0 0 0 4.41523,-4.62866 l 6.6089,3.18534 a 67.435912,67.435904 0 0 0 5.80895,-8.46253 l -5.32268,-5.01623 a 60.276364,60.276364 0 0 0 2.74351,-5.78673 l 7.25278,0.98443 a 67.435912,67.435904 0 0 0 2.95744,-9.82782 l -6.67297,-3.15433 a 60.276364,60.276364 0 0 0 0.82424,-6.32984 l 7.22488,-1.30897 a 67.435912,67.435904 0 0 0 0.17001,-3.39462 67.435912,67.435904 0 0 0 -0.42426,-6.87245 l -7.31687,-0.93741 a 60.276364,60.276364 0 0 0 -1.15445,-6.26215 l 6.53914,-3.51658 a 67.435912,67.435904 0 0 0 -3.48248,-9.65316 l -7.22281,1.36477 a 60.276364,60.276364 0 0 0 -3.03392,-5.60999 l 5.11803,-5.35006 a 67.435912,67.435904 0 0 0 -6.29161,-8.10752 l -6.42699,3.51865 a 60.276364,60.276364 0 0 0 -4.62814,-4.41471 l 3.18481,-6.608905 a 67.435912,67.435904 0 0 0 -8.46253,-5.808949 l -5.01571,5.322674 a 60.276364,60.276364 0 0 0 -5.78673,-2.743502 l 0.98444,-7.252787 a 67.435912,67.435904 0 0 0 -9.82834,-2.95796 l -3.15433,6.672979 a 60.276364,60.276364 0 0 0 -6.32985,-0.823724 l -1.30896,-7.224882 a 67.435912,67.435904 0 0 0 -3.39463,-0.170013 z" />
            <text
               xml:space="preserve"
               style="font-style:normal;font-variant:normal;font-weight:normal;font-stretch:normal;font-size:112.8888855px;line-height:6.61458302px;font-family:'Swis721 Blk BT';-inkscape-font-specification:'Swis721 Blk BT';letter-spacing:0px;word-spacing:0px;fill:#0e3a5e;fill-opacity:1;stroke:none;stroke-width:0.26458332;stroke-opacity:1"
               x="67.351997"
               y="189.06944"
               id="text4561"><tspan
                 id="tspan4559"
                 x="67.351997"
                 y="189.06944"
                 style="font-style:normal;font-variant:normal;font-weight:bold;font-stretch:normal;font-size:112.8888855px;font-family:'Swis721 BT';-inkscape-font-specification:'Swis721 BT Bold';fill:#0e3a5e;fill-opacity:1;stroke:none;stroke-width:0.26458332;stroke-opacity:1">S</tspan></text>
          </g>
          <text
             id="text4561-5"
             y="157.88489"
             x="123.38995"
             style="font-style:normal;font-variant:normal;font-weight:normal;font-stretch:normal;font-size:112.8888855px;line-height:6.61458349px;font-family:'Swis721 Blk BT';-inkscape-font-specification:'Swis721 Blk BT';letter-spacing:0px;word-spacing:0px;fill:#222222;fill-opacity:1;stroke:none;stroke-width:0.26458332;stroke-opacity:1"
             xml:space="preserve"><tspan
               style="font-style:normal;font-variant:normal;font-weight:normal;font-stretch:normal;font-size:24.69444466px;font-family:'Swis721 BT';-inkscape-font-specification:'Swis721 BT Bold';fill:#222222;fill-opacity:1;stroke:none;stroke-width:0.26458332;stroke-opacity:1"
               y="157.88489"
               x="123.38995"
               id="tspan4559-3">ivigik</tspan></text>
        </g>
      </g>
    </g>
  </g>
</svg>
